# xmcd
#
# Track frame offsets: 
#        150
#        16067
#        37870
#        54742
#        73570
#        93017
#        118872
#        136520
#        154357
#        169867
#
# Disc length: 2518 seconds
#
# Revision: 3
# Processed by: cddbd v1.5.1PL2 Copyright (c) Steve Scherf et al.
# Submitted via: ExactAudioCopy v0.95b3
#
DISCID=7609d40a
DTITLE=陳秀文 - 女人背後
DYEAR=1996
DGENRE=Pop
TTITLE0=風光
TTITLE1=給我一些時間
TTITLE2=莎拉的故事
TTITLE3=一生只一次
TTITLE4=盡力就是最好
TTITLE5=女人背後
TTITLE6=艷陽
TTITLE7=緣訂今生
TTITLE8=分開是唯一選擇
TTITLE9=黑夜白天
EXTD=
EXTT0=
EXTT1=
EXTT2=
EXTT3=
EXTT4=
EXTT5=
EXTT6=
EXTT7=
EXTT8=
EXTT9=
PLAYORDER=
